<svg width="36" height="36" viewBox="0 0 36 36" fill="none" xmlns="http://www.w3.org/2000/svg">
<g clip-path="url(#clip0_135_640)">
<path d="M30.3635 8.87588C31.2098 8.0458 31.2098 6.69775 30.3635 5.86768C29.5171 5.0376 28.1427 5.0376 27.2963 5.86768L5.62964 27.1177C4.78328 27.9478 4.78328 29.2958 5.62964 30.1259C6.47599 30.956 7.85047 30.956 8.69683 30.1259L30.3635 8.87588V8.87588ZM13.6666 9.5001C13.6666 7.15596 11.7234 5.2501 9.33328 5.2501C6.94318 5.2501 4.99995 7.15596 4.99995 9.5001C4.99995 11.8442 6.94318 13.7501 9.33328 13.7501C11.7234 13.7501 13.6666 11.8442 13.6666 9.5001ZM31 26.5001C31 24.156 29.0567 22.2501 26.6666 22.2501C24.2765 22.2501 22.3333 24.156 22.3333 26.5001C22.3333 28.8442 24.2765 30.7501 26.6666 30.7501C29.0567 30.7501 31 28.8442 31 26.5001Z" fill="#DDDFEB"/>
</g>
<defs>
<clipPath id="clip0_135_640">
<rect width="26" height="34" fill="white" transform="translate(5 1)"/>
</clipPath>
</defs>
</svg>
