<svg width="36" height="36" viewBox="0 0 36 36" fill="none" xmlns="http://www.w3.org/2000/svg">
<g clip-path="url(#clip0_135_641)">
<path d="M6.65625 6.15812C6.32813 5.17375 5.26172 4.6464 4.28321 4.96867C3.30469 5.29094 2.77149 6.3632 3.09375 7.34172L6.02344 16.1249H4.875C3.83789 16.1249 3 16.9628 3 17.9999C3 19.037 3.83789 19.8749 4.875 19.8749H7.27149L10.5938 29.8417C10.8574 30.6327 11.6133 31.1542 12.4453 31.1249C13.2773 31.0956 13.9922 30.5155 14.1914 29.707L16.6523 19.8749H19.3477L21.8086 29.707C22.0078 30.5155 22.7227 31.0956 23.5547 31.1249C24.3867 31.1542 25.1426 30.6327 25.4063 29.8417L28.7285 19.8749H31.125C32.1621 19.8749 33 19.037 33 17.9999C33 16.9628 32.1621 16.1249 31.125 16.1249H29.9766L32.9063 7.34172C33.2344 6.35734 32.7012 5.29679 31.7227 4.96867C30.7441 4.64054 29.6777 5.17375 29.3496 6.15226L26.0215 16.1249H22.2773L19.8164 6.29289C19.6113 5.46086 18.8613 4.87492 18 4.87492C17.1387 4.87492 16.3887 5.46086 16.1836 6.29289L13.7227 16.1249H9.97266L6.65625 6.15812ZM11.2266 19.8749H12.7852L12.1172 22.5468L11.2266 19.8749ZM17.5898 16.1249L18 14.4784L18.4102 16.1249H17.5898ZM23.2148 19.8749H24.7734L23.8828 22.5468L23.2148 19.8749Z" fill="#DDDFEB"/>
</g>
<defs>
<clipPath id="clip0_135_641">
<rect width="30" height="30" fill="white" transform="translate(3 3)"/>
</clipPath>
</defs>
</svg>
